<?xml version="1.0" encoding="utf-8"?>
<!-- Generator: Adobe Illustrator 27.0.0, SVG Export Plug-In . SVG Version: 6.00 Build 0)  -->
<svg version="1.1" id="Layer_1" xmlns="http://www.w3.org/2000/svg" xmlns:xlink="http://www.w3.org/1999/xlink" x="0px" y="0px"
	 viewBox="0 0 300 300" style="enable-background:new 0 0 300 300;" xml:space="preserve">
<style type="text/css">
	.st0{fill:#FF4C68;}
</style>
<g id="XMLID_27279_">
	<path id="XMLID_27285_" class="st0" d="M48.03,235.64c3.49,0,9.69,1.07,17.48,3.02l1.45,0.53c0.15,0.05,0.29,0.09,0.44,0.13
		c16.26,4.01,49.19,12.32,95.23,24.04l0.33,0.08c0.09,0.02,0.17,0.04,0.26,0.06c1.29,0.25,2.57,0.37,3.82,0.37
		c2.1,0,4.19-0.37,6.39-1.13c0.06-0.03,0.13-0.05,0.19-0.07l0.54-0.21c0.44-0.14,0.87-0.35,1.25-0.63l72.53-52.58
		c1.37-0.74,2.66-1.69,3.84-2.83c0.06-0.06,0.12-0.12,0.18-0.18c3.25-3.24,5.04-7.52,5.04-12.06c0-8.85-6.62-16.13-15.44-17.01
		c-1.69-0.32-3.34-0.38-5.32-0.08c-0.79,0.12-1.51,0.27-2.19,0.48c-0.84,0.26-1.68,0.6-2.58,1.07c-0.43,0.21-0.89,0.46-1.33,0.73
		c-0.15,0.09-0.29,0.18-0.43,0.27l-7.97,5.77l-43.68,28.32c-0.59,0.09-1.28,0.11-2.1,0.08c-2.59-0.63-11.89-3.07-27.68-7.24
		l-0.7-0.19c-3.55-1.02-7.17-1.98-10.65-2.81c-4.89-1.3-8.76-2.33-10.31-2.74c-2.22-1.4-3.58-3.82-3.58-6.42
		c0-3.66,2.55-6.77,6.12-7.5h27.84c6.78,0,12.29-5.51,12.29-12.28c0-6.77-5.51-12.28-12.29-12.28h-30.07
		c-3.88-0.12-8.74-0.17-14.72-0.17c-14.22,0-24.15,5.59-31.98,11.06c-1.93,1.34-3.79,2.73-5.64,4.09
		c-8.49,6.3-15.81,11.74-26.61,11.74c-1.39,0-2.69,0.67-3.51,1.8c-0.68,0.95-0.94,2.11-0.75,3.24l-0.06,33.82
		c0,0.27,0.02,0.53,0.06,0.78v2.62C43.71,233.7,45.64,235.64,48.03,235.64z M52.35,223.45v-25.99c11.31-1.27,19.46-7.32,27.38-13.2
		c1.78-1.32,3.58-2.66,5.43-3.95c7.08-4.93,15.25-9.5,27.04-9.5c5.89,0,10.67,0.05,14.59,0.17l30.2,0c2.01,0,3.65,1.64,3.65,3.65
		c0,2.01-1.64,3.64-3.65,3.64h-28.23c-0.23,0-0.47,0.02-0.7,0.05c-7.92,1.3-13.67,8.07-13.67,16.08c0,5.9,3.24,11.35,8.45,14.23
		c0.3,0.16,0.63,0.3,0.96,0.39c0.9,0.24,5.22,1.39,11,2.92c3.46,0.84,6.95,1.76,10.46,2.77l0.79,0.21c17.01,4.5,26.27,6.92,28.3,7.4
		c0.25,0.06,0.5,0.09,0.75,0.11c2.17,0.12,4.01-0.02,5.63-0.42c0.46-0.12,0.91-0.31,1.31-0.57l44.47-28.83
		c0.06-0.04,0.12-0.08,0.18-0.12l7.83-5.66c0.03-0.02,0.07-0.05,0.11-0.07c0.23-0.16,0.47-0.28,0.73-0.4
		c0.48-0.25,0.84-0.4,1.17-0.5c0.32-0.09,0.64-0.16,0.97-0.2c0.84-0.13,1.72-0.12,2.55,0.05c0.16,0.03,0.33,0.06,0.5,0.07
		c4.44,0.39,7.8,4.01,7.8,8.43c0,2.24-0.9,4.36-2.53,5.97c-0.03,0.03-0.05,0.05-0.08,0.08c-0.65,0.62-1.34,1.13-2.06,1.49
		c-0.2,0.1-0.39,0.22-0.57,0.36l-3.06,2.23l-69.21,50.17c-0.11,0.04-0.23,0.08-0.33,0.13c-2,0.68-3.66,0.78-5.51,0.44l-0.22-0.06
		c-45.86-11.67-78.72-19.96-95.08-24l-1.41-0.52c-0.15-0.05-0.3-0.1-0.45-0.14c-6.3-1.58-11.5-2.6-15.54-3.06L52.35,223.45z"/>
	<path id="XMLID_27280_" class="st0" d="M126.44,153.34h59.5c7.4,0,13.42-6.02,13.42-13.42v-29.38l2.01,2c1.68,1.69,4.42,1.69,6.1,0
		l5.33-5.32h0c5.47-5.47,5.47-14.38,0-19.85l-41.05-41.05c-0.09-0.12-0.2-0.23-0.3-0.34l-5.33-5.32c-2.65-2.65-6.18-4.11-9.94-4.11
		c-3.76,0-7.29,1.46-9.94,4.11l-5.32,5.32c-0.1,0.1-0.19,0.2-0.28,0.31L99.58,87.38c-5.47,5.47-5.47,14.37,0,19.85l5.32,5.32
		c0.85,0.84,1.95,1.27,3.06,1.27c1.1,0,2.21-0.43,3.05-1.27l2.01-2.01v29.38C113.01,147.32,119.04,153.34,126.44,153.34z
		 M166.68,138.36h-20.99v-26.98h20.99V138.36z M190.73,139.91c0,2.64-2.15,4.79-4.79,4.79h-11.12c0.32-0.61,0.5-1.3,0.5-2.03v-35.62
		c0-2.38-1.93-4.32-4.32-4.32h-29.63c-2.38,0-4.32,1.94-4.32,4.32v35.62c0,0.73,0.18,1.42,0.51,2.03h-11.12
		c-2.64,0-4.79-2.15-4.79-4.79V101.9l34.54-34.53l22.05,22.05l0,0l12.48,12.48V139.91z M107.95,103.39l-2.27-2.27
		c-2.1-2.1-2.1-5.53,0-7.64l41.37-41.37c0.1-0.1,0.19-0.2,0.29-0.31l5.02-5.03c2.03-2.03,5.62-2.03,7.66,0l5,5
		c0.09,0.12,0.19,0.23,0.3,0.33l41.37,41.37c2.1,2.1,2.1,5.53,0,7.63l-2.27,2.27L159.24,58.2c-0.81-0.81-1.91-1.27-3.05-1.27
		s-2.24,0.45-3.05,1.27L107.95,103.39z"/>
</g>
</svg>
