<?xml version="1.0" encoding="utf-8"?>
<!-- Generator: Adobe Illustrator 27.0.0, SVG Export Plug-In . SVG Version: 6.00 Build 0)  -->
<svg version="1.1" id="Layer_1" xmlns="http://www.w3.org/2000/svg" xmlns:xlink="http://www.w3.org/1999/xlink" x="0px" y="0px"
	 viewBox="0 0 300 300" style="enable-background:new 0 0 300 300;" xml:space="preserve">
<style type="text/css">
	.st0{fill:#FF4C68;}
</style>
<g id="XMLID_27428_">
	<path id="XMLID_27439_" class="st0" d="M95.76,147.7c0,7.4,0.46,13.89,2.75,23.4c4.08,16.59,14.02,39.28,17.5,46.99
		c-1.49,2.11-2.3,4.58-2.33,7.15c-0.03,3.23,1.18,6.25,3.28,8.62c-2.05,2.29-3.25,5.21-3.28,8.33c-0.04,3.65,1.5,7,4.08,9.46
		c-1.85,2.23-2.92,5-2.95,8c-0.07,7.36,6.35,13.43,14.3,13.53l51.7,0.68c0.07,0,0.14,0,0.21,0c3.95,0,7.75-1.5,10.46-4.15
		c2.5-2.44,3.9-5.65,3.93-9.04c0.04-3.64-1.5-6.99-4.08-9.45c1.85-2.23,2.92-5.01,2.95-8c0.03-3.21-1.18-6.24-3.28-8.61
		c2.05-2.29,3.25-5.22,3.28-8.33c0.03-3.24-1.19-6.23-3.25-8.57c3.63-8.06,13.31-30.28,17.32-46.62c2.29-9.5,2.75-15.99,2.75-23.38
		c0-31.8-25.87-57.67-57.67-57.67C121.63,90.03,95.76,115.91,95.76,147.7z M185.37,263.46c-1.11,1.08-2.72,1.76-4.45,1.67
		l-51.7-0.68c-3.16-0.04-5.72-2.16-5.69-4.72c0.02-1.96,1.59-3.7,3.91-4.32c1.99-0.53,3.33-2.37,3.24-4.42
		c-0.1-2.05-1.61-3.76-3.64-4.1c-2.66-0.44-4.65-2.43-4.63-4.61c0.02-1.86,1.49-3.56,3.66-4.23c1.82-0.56,3.06-2.24,3.07-4.15
		c0.01-1.9-1.22-3.59-3.04-4.18c-2.23-0.71-3.72-2.48-3.7-4.39c0.01-0.84,0.3-1.51,0.65-2.05h61.2c0.8,0.81,1.29,1.82,1.28,2.91
		c-0.02,1.86-1.48,3.56-3.65,4.23c-1.82,0.56-3.07,2.24-3.07,4.14c-0.01,1.91,1.22,3.6,3.03,4.18c2.23,0.71,3.72,2.48,3.69,4.39
		c-0.02,1.97-1.58,3.7-3.89,4.31c-1.99,0.53-3.33,2.37-3.24,4.43c0.09,2.05,1.61,3.75,3.64,4.09c2.66,0.45,4.64,2.43,4.62,4.61
		C186.66,261.92,185.96,262.89,185.37,263.46z M153.43,98.76c26.98,0,48.94,21.95,48.94,48.94c0,6.76-0.42,12.69-2.5,21.32
		c-3.86,15.71-13.64,38.08-17,45.53h-58.88c-3.35-7.45-13.13-29.8-17-45.51c-2.08-8.66-2.5-14.58-2.5-21.34
		C104.49,120.72,126.44,98.76,153.43,98.76z"/>
	<path id="XMLID_27436_" class="st0" d="M93.01,47.14c-0.84-1.07-2.05-1.74-3.4-1.91c-1.34-0.16-2.68,0.22-3.75,1.06
		c-1.07,0.84-1.75,2.05-1.91,3.41c-0.16,1.35,0.22,2.68,1.06,3.74l26.03,33.05c0.97,1.23,2.45,1.94,4,1.94c0.06,0,0.11,0,0.17,0h0
		c1.08-0.04,2.11-0.42,2.97-1.09c1.07-0.84,1.75-2.05,1.91-3.4c0.16-1.35-0.22-2.68-1.06-3.75L93.01,47.14z M115.49,83.91
		c-0.13,0.1-0.27,0.15-0.42,0.16c-0.22,0.03-0.45-0.1-0.59-0.28L88.45,50.73c-0.15-0.2-0.17-0.4-0.15-0.53
		c0.02-0.11,0.07-0.33,0.28-0.49c0.15-0.12,0.31-0.15,0.44-0.15c0.03,0,0.06,0,0.09,0c0.11,0.01,0.32,0.07,0.49,0.27l26.02,33.05
		c0.15,0.2,0.17,0.4,0.15,0.53C115.75,83.54,115.7,83.74,115.49,83.91z"/>
	<path id="XMLID_27433_" class="st0" d="M187.31,87.2L187.31,87.2c0.84,0.56,1.81,0.85,2.81,0.85c0.06,0,0.11,0,0.18,0
		c1.64-0.06,3.16-0.91,4.06-2.27l21.47-32.29c0.76-1.13,1.02-2.49,0.75-3.82c-0.27-1.33-1.04-2.48-2.17-3.24
		c-1.13-0.75-2.49-1.03-3.83-0.75c-1.33,0.27-2.48,1.05-3.23,2.18l-21.46,32.29c-0.75,1.13-1.02,2.49-0.75,3.82
		C185.41,85.29,186.18,86.44,187.31,87.2z M189.53,82.56l21.47-32.29c0.14-0.22,0.35-0.28,0.46-0.31c0.1-0.02,0.32-0.04,0.54,0.1
		c0.22,0.15,0.29,0.35,0.31,0.46c0.03,0.13,0.03,0.34-0.11,0.54l-21.47,32.29c-0.18,0.28-0.46,0.32-0.58,0.32
		c-0.14,0-0.29-0.03-0.41-0.12c-0.22-0.15-0.29-0.35-0.31-0.46C189.4,82.99,189.38,82.77,189.53,82.56z"/>
	<path id="XMLID_27430_" class="st0" d="M152.37,79.65c0.07,0,0.14,0,0.21,0c0.07,0,0.12,0,0.18,0c2.64-0.08,4.8-2.23,4.91-4.88
		l1.81-42.89c0.06-1.36-0.42-2.66-1.34-3.66c-0.92-1-2.18-1.58-3.53-1.64c-1.36-0.05-2.65,0.41-3.66,1.33
		c-1.01,0.92-1.59,2.18-1.65,3.54l-1.81,42.89c-0.06,1.36,0.41,2.66,1.33,3.66C149.76,79.01,151.01,79.59,152.37,79.65L152.37,79.65
		z M151.86,74.54l1.81-42.89c0.01-0.27,0.15-0.44,0.23-0.51c0.1-0.09,0.27-0.19,0.52-0.19c0.25,0.01,0.41,0.13,0.5,0.23
		c0.08,0.08,0.2,0.26,0.19,0.52l-1.81,42.89c-0.02,0.38-0.32,0.68-0.73,0.7h-0.03c-0.25-0.01-0.41-0.13-0.5-0.23
		C151.97,74.97,151.85,74.8,151.86,74.54z"/>
	<path id="XMLID_27429_" class="st0" d="M122.52,139.55L122.52,139.55c2.61,0.16,4.92-1.84,5.09-4.46c0.08-1.27,0.27-2.47,0.58-3.67
		c2-7.91,8.41-11,13.43-12.21c2.36-0.57,4.08-0.63,4.26-0.63c2.64-0.06,4.73-2.25,4.68-4.89c-0.06-2.59-2.2-4.69-4.89-4.69
		c-8.98,0.19-26.3,5.76-27.62,25.46C117.88,137.09,119.88,139.37,122.52,139.55z"/>
</g>
</svg>
