<?xml version="1.0" encoding="utf-8"?>
<!-- Generator: Adobe Illustrator 27.0.0, SVG Export Plug-In . SVG Version: 6.00 Build 0)  -->
<svg version="1.1" id="Layer_1" xmlns="http://www.w3.org/2000/svg" xmlns:xlink="http://www.w3.org/1999/xlink" x="0px" y="0px"
	 viewBox="0 0 300 300" style="enable-background:new 0 0 300 300;" xml:space="preserve">
<style type="text/css">
	.st0{fill:#FF4C68;}
</style>
<g id="XMLID_27112_">
	<path id="XMLID_27113_" class="st0" d="M133.4,239.12l12.2,11.39c0.11,0.1,0.22,0.19,0.33,0.28l0.99,0.79
		c1.02,0.81,2.25,1.22,3.47,1.22c1.38,0,2.77-0.52,3.84-1.53l12.99-12.14c88.04-82.24,97.02-130.65,97.59-134.36
		c0.51-2.74,0.75-5.12,0.75-7.49c0-27.36-27.3-49.62-60.86-49.62c-24.36,0-44.59,24.53-54.38,45.59
		c-9.79-21.07-30.02-45.59-54.38-45.59c-33.56,0-60.86,22.26-60.86,49.62c0,2.35,0.23,4.73,0.71,7.27
		c0.31,2.02,2.7,15.02,15.71,37.46C68.74,171.79,96.3,204.47,133.4,239.12z M95.93,58.78c24.12,0,44.99,34.52,48.95,52.26
		c0.57,2.54,2.83,4.36,5.44,4.36c2.61,0,4.86-1.81,5.43-4.36c3.96-17.74,24.83-52.26,48.94-52.26c27.42,0,49.72,17.26,49.72,38.48
		c0,1.69-0.18,3.46-0.58,5.54c-0.02,0.08-0.03,0.19-0.05,0.27c-0.06,0.46-7.49,46.94-94.18,127.91l-9.3,8.69l-9.3-8.69
		c-86.69-80.96-93.96-126.27-94.22-128.16c-0.01-0.09-0.03-0.18-0.05-0.26c-0.36-1.89-0.53-3.62-0.53-5.3
		C46.2,76.04,68.51,58.78,95.93,58.78z"/>
</g>
</svg>
